<svg width="561" height="476" viewBox="0 0 561 476" fill="none" xmlns="http://www.w3.org/2000/svg">
<rect width="561" height="476" fill="white"/>
<path d="M99.375 27C83.3626 27 68.0059 33.3609 56.6834 44.6834C45.3609 56.0059 39 71.3626 39 87.375L39 389.25C39 405.262 45.3609 420.619 56.6834 431.942C68.0059 443.264 83.3626 449.625 99.375 449.625H461.625C477.637 449.625 492.994 443.264 504.317 431.942C515.639 420.619 522 405.262 522 389.25V87.375C522 71.3626 515.639 56.0059 504.317 44.6834C492.994 33.3609 477.637 27 461.625 27H99.375ZM491.812 87.375V147.75H69.1875V87.375C69.1875 79.3688 72.368 71.6905 78.0292 66.0292C83.6905 60.368 91.3688 57.1875 99.375 57.1875H461.625C469.631 57.1875 477.31 60.368 482.971 66.0292C488.632 71.6905 491.812 79.3688 491.812 87.375ZM99.375 419.438C91.3688 419.438 83.6905 416.257 78.0292 410.596C72.368 404.935 69.1875 397.256 69.1875 389.25V177.938H491.812V389.25C491.812 397.256 488.632 404.935 482.971 410.596C477.31 416.257 469.631 419.438 461.625 419.438H99.375Z" fill="black"/>
<path d="M114.469 117.562C118.472 117.562 122.311 115.972 125.142 113.142C127.972 110.311 129.562 106.472 129.562 102.469C129.562 98.4656 127.972 94.6265 125.142 91.7959C122.311 88.9652 118.472 87.375 114.469 87.375C110.466 87.375 106.626 88.9652 103.796 91.7959C100.965 94.6265 99.375 98.4656 99.375 102.469C99.375 106.472 100.965 110.311 103.796 113.142C106.626 115.972 110.466 117.562 114.469 117.562ZM174.844 102.469C174.844 106.472 173.254 110.311 170.423 113.142C167.592 115.972 163.753 117.562 159.75 117.562C155.747 117.562 151.908 115.972 149.077 113.142C146.246 110.311 144.656 106.472 144.656 102.469C144.656 98.4656 146.246 94.6265 149.077 91.7959C151.908 88.9652 155.747 87.375 159.75 87.375C163.753 87.375 167.592 88.9652 170.423 91.7959C173.254 94.6265 174.844 98.4656 174.844 102.469ZM205.031 117.562C209.034 117.562 212.874 115.972 215.704 113.142C218.535 110.311 220.125 106.472 220.125 102.469C220.125 98.4656 218.535 94.6265 215.704 91.7959C212.874 88.9652 209.034 87.375 205.031 87.375C201.028 87.375 197.189 88.9652 194.358 91.7959C191.528 94.6265 189.938 98.4656 189.938 102.469C189.938 106.472 191.528 110.311 194.358 113.142C197.189 115.972 201.028 117.562 205.031 117.562Z" fill="black"/>
<path d="M224.68 266.032L187.74 296.812L224.68 327.592C225.905 328.596 226.919 329.833 227.664 331.231C228.409 332.629 228.87 334.16 229.02 335.737C229.17 337.314 229.006 338.905 228.538 340.418C228.071 341.931 227.308 343.337 226.294 344.554C225.28 345.771 224.036 346.775 222.632 347.509C221.228 348.243 219.693 348.691 218.115 348.829C216.537 348.966 214.947 348.79 213.438 348.31C211.928 347.83 210.529 347.056 209.32 346.032L161.32 306.032C159.968 304.906 158.88 303.497 158.134 301.903C157.388 300.31 157.001 298.572 157.001 296.812C157.001 295.053 157.388 293.315 158.134 291.722C158.88 290.128 159.968 288.719 161.32 287.592L209.32 247.592C211.769 245.586 214.911 244.628 218.063 244.928C221.215 245.228 224.12 246.761 226.147 249.194C228.173 251.626 229.156 254.761 228.881 257.915C228.606 261.069 227.096 263.987 224.68 266.032ZM400.68 287.592L352.68 247.592C351.471 246.569 350.072 245.795 348.562 245.315C347.053 244.835 345.463 244.659 343.885 244.796C342.307 244.934 340.772 245.382 339.368 246.116C337.964 246.85 336.72 247.854 335.706 249.071C334.692 250.288 333.929 251.694 333.462 253.207C332.994 254.72 332.83 256.311 332.98 257.888C333.13 259.465 333.591 260.996 334.336 262.394C335.081 263.792 336.095 265.029 337.32 266.032L374.26 296.812L337.32 327.592C336.095 328.596 335.081 329.833 334.336 331.231C333.591 332.629 333.13 334.16 332.98 335.737C332.83 337.314 332.994 338.905 333.462 340.418C333.929 341.931 334.692 343.337 335.706 344.554C336.72 345.771 337.964 346.775 339.368 347.509C340.772 348.243 342.307 348.691 343.885 348.829C345.463 348.966 347.053 348.79 348.562 348.31C350.072 347.83 351.471 347.056 352.68 346.032L400.68 306.032C402.032 304.906 403.12 303.497 403.866 301.903C404.612 300.31 404.999 298.572 404.999 296.812C404.999 295.053 404.612 293.315 403.866 291.722C403.12 290.128 402.032 288.719 400.68 287.592ZM317.1 197.532C315.619 196.994 314.046 196.752 312.471 196.822C310.896 196.891 309.351 197.27 307.923 197.936C306.494 198.603 305.212 199.545 304.147 200.707C303.083 201.87 302.258 203.231 301.72 204.712L237.72 380.712C236.635 383.703 236.782 387.002 238.128 389.884C239.475 392.766 241.91 394.995 244.9 396.082C246.213 396.567 247.601 396.814 249 396.812C251.464 396.813 253.868 396.055 255.886 394.642C257.904 393.228 259.438 391.228 260.28 388.912L324.28 212.912C324.819 211.431 325.06 209.858 324.991 208.284C324.922 206.709 324.543 205.163 323.876 203.735C323.209 202.307 322.268 201.024 321.105 199.96C319.942 198.895 318.581 198.071 317.1 197.532Z" fill="black"/>
</svg>
